<?xml version="1.0" encoding="UTF-8"?>
<svg version="1.1" xmlns="http://www.w3.org/2000/svg" width="500" height="500">
<path d="M0 0 C165 0 330 0 500 0 C500 165 500 330 500 500 C335 500 170 500 0 500 C0 335 0 170 0 0 Z " fill="#FF2828" transform="translate(0,0)"/>
<path d="M0 0 C36.3 0 72.6 0 110 0 C118.03820581 17.22472673 118.03820581 17.22472673 120.8046875 23.625 C121.12586044 24.36328537 121.44703339 25.10157074 121.77793884 25.86222839 C122.81215472 28.24068159 123.84360601 30.62032195 124.875 33 C125.61397352 34.7010159 126.35315454 36.40194167 127.0925293 38.1027832 C128.24010234 40.74285252 129.38747237 43.38300868 130.53404236 46.02351379 C133.17071661 52.09553334 135.8151686 58.16411205 138.46484375 64.23046875 C146.71544569 83.1231498 154.91629966 102.03521666 163 121 C167.19189171 112.83104414 171.01781936 104.56673502 174.625 96.125 C175.46234486 94.17764941 176.30108408 92.23090258 177.13981628 90.28414917 C177.75057337 88.86628962 178.36092411 87.44825497 178.97090149 86.03005981 C183.26489979 76.04948859 187.60337578 66.08819336 191.9375 56.125 C192.36449188 55.14336884 192.79148376 54.16173767 193.23141479 53.15036011 C195.34970125 48.28083227 197.46850711 43.41153093 199.58789062 38.54248047 C201.14218737 34.97158692 202.69560361 31.40031301 204.24804688 27.82861328 C205.92157701 23.97860119 207.59735939 20.1295786 209.275177 16.28143311 C209.87940797 14.89462247 210.48283293 13.50746036 211.0854187 12.11993408 C211.90240114 10.23915473 212.72258437 8.35976669 213.54296875 6.48046875 C213.99696045 5.43785889 214.45095215 4.39524902 214.91870117 3.32104492 C216 1 216 1 217 0 C252.97 0 288.94 0 326 0 C326 86.46 326 172.92 326 262 C293.33 262 260.66 262 227 262 C224.36742778 191.50556613 224.36742778 191.50556613 242.73486328 154.65185547 C246.22708787 147.60878382 249.09810625 140.30110089 252 133 C250.02 133 248.04 133 246 133 C245.86807755 133.73393982 245.73615509 134.46787964 245.60023499 135.22406006 C245.05132218 137.76264747 244.33827471 140.00062024 243.39624023 142.41503906 C243.06701065 143.26475281 242.73778107 144.11446655 242.39857483 144.9899292 C242.03888107 145.90590881 241.67918732 146.82188843 241.30859375 147.765625 C240.93121567 148.73622864 240.55383759 149.70683228 240.1650238 150.70684814 C238.92647825 153.88945883 237.68211087 157.06975689 236.4375 160.25 C235.58121557 162.4458359 234.72526152 164.64180066 233.86962891 166.83789062 C232.11587073 171.33741188 230.35975742 175.83600418 228.60205078 180.33398438 C226.13031523 186.66175602 223.6713323 192.9944223 221.21484375 199.328125 C220.11812379 202.15227895 219.02100499 204.97627744 217.9236145 207.8001709 C217.2250277 209.59879659 216.52717093 211.39770599 215.83004761 213.19689941 C214.86578365 215.68433948 213.89819501 218.17045974 212.9296875 220.65625 C212.50289955 221.76048309 212.50289955 221.76048309 212.06748962 222.88702393 C210.1142095 227.8857905 210.1142095 227.8857905 209 229 C206.13908182 229.09522418 203.30236379 229.12553326 200.44116211 229.11352539 C199.09495033 229.11374443 199.09495033 229.11374443 197.72154236 229.1139679 C194.74011866 229.11326842 191.7587566 229.10547441 188.77734375 229.09765625 C186.71611058 229.09579219 184.65487696 229.09436823 182.59364319 229.09336853 C177.1569599 229.08954237 171.72030314 229.07971126 166.28363037 229.06866455 C160.74052286 229.05845253 155.19741108 229.05387136 149.65429688 229.04882812 C138.76951957 229.03808908 127.88476198 229.02101149 117 229 C116.7576915 228.3702829 116.515383 227.7405658 116.26573181 227.09176636 C115.08234989 224.01681144 113.89865065 220.94197884 112.71484375 217.8671875 C112.26677368 216.70337555 111.81870361 215.5395636 111.35705566 214.34048462 C108.88047299 207.91060016 106.40011582 201.4822083 103.91235352 195.05664062 C103.66187476 194.40960049 103.41139601 193.76256035 103.15332699 193.09591293 C101.63246341 189.16727779 101.63246341 189.16727779 100.11117363 185.23880768 C97.1956286 177.70970436 94.29879246 170.17415401 91.4462738 162.62088013 C90.09789 159.05654669 88.7349142 155.49792183 87.36843872 151.94049072 C86.74952986 150.31799797 86.13772286 148.69277775 85.53317261 147.06488037 C84.7053762 144.83800729 83.85401325 142.62165554 82.99609375 140.40625 C82.53388428 139.18228516 82.0716748 137.95832031 81.59545898 136.69726562 C80.2780715 133.74502472 80.2780715 133.74502472 77.40028381 133.3314209 C76.60819016 133.222052 75.8160965 133.11268311 75 133 C77.59563204 139.56143626 80.19171307 146.12269475 82.78808594 152.68383789 C83.66871979 154.90938426 84.5492561 157.13496924 85.4296875 159.3605957 C86.70546348 162.58555441 87.98160677 165.81036758 89.2578125 169.03515625 C89.64244659 170.00767838 90.02708069 170.9802005 90.42337036 171.98219299 C90.80331146 172.94205612 91.18325256 173.90191925 91.57470703 174.89086914 C91.95543365 175.87031998 92.33616028 176.84977081 92.72842407 177.85890198 C93.63586849 180.10050768 94.60349413 182.31813536 95.61019897 184.51695251 C99.77771339 193.76573817 100.8190466 201.99072937 100.5859375 212.12109375 C100.57989502 213.42308716 100.57385254 214.72508057 100.56762695 216.06652832 C100.53660682 220.85718209 100.45284335 225.64737827 100.375 230.4375 C100.25125 241.183125 100.1275 251.92875 100 263 C67 263 34 263 0 263 C0 176.21 0 89.42 0 0 Z " fill="#FFF8F8" transform="translate(87,118)"/>
</svg>
